# xmcd CD database file
#
# Track frame offsets:
#	150
#	13317
#	31630
#	43517
#	58015
#	65457
#	85605
#	105640
#	118605
#	133865
#	151262
#
# Disc length: 2203 seconds
#
# Revision: 0
# Processed by: cddbd v1.5.2PL0 Copyright (c) Steve Scherf et al.
# Submitted via: CDex 1.70beta2
#
DISCID=8708990b
DTITLE=Mark C Halstead - Before And After Love
DYEAR=1900
DGENRE=Country
TTITLE0=Whiskers In The Sink
TTITLE1=Welcome Stranger
TTITLE2=Tell Me
TTITLE3=Change Partners
TTITLE4=The Way It Is
TTITLE5=(I Don't Know How To) Say Goodbye
TTITLE6=Heaven
TTITLE7=Before And After Love
TTITLE8=In Defence Of My heart
TTITLE9=Hearts And Diamonds
TTITLE10=Here Comes
EXTD=
EXTT0=
EXTT1=
EXTT2=
EXTT3=
EXTT4=
EXTT5=
EXTT6=
EXTT7=
EXTT8=
EXTT9=
EXTT10=
PLAYORDER=
